<svg width="62" height="65" viewBox="0 0 62 65" fill="none" xmlns="http://www.w3.org/2000/svg">
<path d="M18.1429 8H9.57143C7.29814 8 5.11797 8.7375 3.51051 10.0503C1.90306 11.363 1 13.1435 1 15V57C1 58.8565 1.90306 60.637 3.51051 61.9497C5.11797 63.2625 7.29814 64 9.57143 64H52.4286C54.7019 64 56.882 63.2625 58.4895 61.9497C60.0969 60.637 61 58.8565 61 57V15C61 13.1435 60.0969 11.363 58.4895 10.0503C56.882 8.7375 54.7019 8 52.4286 8H43.8571M18.1429 8C18.1429 9.85651 19.0459 11.637 20.6534 12.9497C22.2608 14.2625 24.441 15 26.7143 15H35.2857C37.559 15 39.7392 14.2625 41.3466 12.9497C42.9541 11.637 43.8571 9.85651 43.8571 8M18.1429 8C18.1429 6.14348 19.0459 4.36301 20.6534 3.05025C22.2608 1.7375 24.441 1 26.7143 1H35.2857C37.559 1 39.7392 1.7375 41.3466 3.05025C42.9541 4.36301 43.8571 6.14348 43.8571 8" fill="#FFF9F9"/>
<path d="M18.1429 8H9.57143C7.29814 8 5.11797 8.7375 3.51051 10.0503C1.90306 11.363 1 13.1435 1 15V57C1 58.8565 1.90306 60.637 3.51051 61.9497C5.11797 63.2625 7.29814 64 9.57143 64H52.4286C54.7019 64 56.882 63.2625 58.4895 61.9497C60.0969 60.637 61 58.8565 61 57V15C61 13.1435 60.0969 11.363 58.4895 10.0503C56.882 8.7375 54.7019 8 52.4286 8H43.8571M18.1429 8C18.1429 9.85652 19.0459 11.637 20.6534 12.9497C22.2608 14.2625 24.441 15 26.7143 15H35.2857C37.559 15 39.7392 14.2625 41.3466 12.9497C42.9541 11.637 43.8571 9.85652 43.8571 8M18.1429 8C18.1429 6.14348 19.0459 4.36301 20.6534 3.05025C22.2608 1.7375 24.441 1 26.7143 1H35.2857C37.559 1 39.7392 1.7375 41.3466 3.05025C42.9541 4.36301 43.8571 6.14348 43.8571 8" stroke="#7C0C0C" stroke-width="2" stroke-linecap="round" stroke-linejoin="round"/>
<path d="M23.4766 54.7292C20.8825 54.5381 18.5054 53.3145 16.826 51.3058C16.0078 50.3302 15.3997 49.1767 15.0399 47.9176C14.6801 46.6588 14.5764 45.3217 14.7352 43.9906C14.894 42.6596 15.3119 41.3631 15.9628 40.1829C16.6136 39.0026 17.4832 37.964 18.517 37.1324L33.308 24.9844C34.8237 23.7804 36.6848 23.1924 38.5254 23.3356C40.3661 23.4789 42.0539 24.3432 43.2571 25.7588C43.883 26.5085 44.3512 27.3915 44.6338 28.3546C44.9161 29.3177 45.0068 30.341 44.9003 31.3629C44.7997 32.2453 44.5271 33.1058 44.0995 33.89C43.6719 34.6742 43.0983 35.3651 42.4154 35.9192L27.6048 48.0842C26.7127 48.8044 25.6116 49.1573 24.5221 49.0725C23.4325 48.9877 22.4351 48.4714 21.7298 47.627C21.3794 47.2108 21.1189 46.7181 20.9647 46.1805C20.8105 45.6427 20.7659 45.0713 20.8338 44.5025C20.9016 43.9337 21.0805 43.3799 21.359 42.8757C21.6375 42.3716 22.0096 41.9284 22.452 41.5737L36.1426 30.3646C36.4194 30.1245 36.7702 30.0049 37.1176 30.0319C37.4653 30.059 37.7812 30.2305 37.9961 30.5088C38.2108 30.7875 38.3066 31.15 38.2628 31.5168C38.2191 31.8836 38.0393 32.2247 37.7627 32.4651L24.072 43.6742C23.9196 43.7901 23.791 43.9375 23.6947 44.1068C23.5984 44.2759 23.5367 44.4629 23.5138 44.6552C23.4908 44.8477 23.5071 45.0408 23.5617 45.2216C23.6162 45.4026 23.7076 45.5672 23.8298 45.7043C24.1124 46.015 24.4967 46.2034 24.9135 46.2358C25.3302 46.2683 25.752 46.1426 26.1029 45.8812L40.9091 33.7531C41.2874 33.4309 41.6036 33.035 41.8389 32.5892C42.0741 32.1434 42.2232 31.6568 42.2775 31.1587C42.3395 30.5162 42.2773 29.8738 42.0944 29.2704C41.9116 28.6671 41.6121 28.1154 41.2139 27.6487C40.4514 26.7371 39.374 26.1797 38.197 26.0881C37.0201 25.9965 35.8307 26.3774 34.8667 27.1547L20.1305 39.2882C19.3867 39.8813 18.7608 40.624 18.2923 41.4694C17.8238 42.3149 17.5231 43.2442 17.4092 44.1987C17.2953 45.1534 17.3708 46.112 17.6308 47.0142C17.8907 47.9162 18.3296 48.7418 18.9194 49.4385C20.1764 50.9505 21.958 51.8755 23.9049 52.0271C25.8518 52.1786 27.8192 51.5453 29.4105 50.2551L44.0681 38.1898C44.2043 38.0687 44.3608 37.9762 44.5283 37.9177C44.6959 37.8592 44.8713 37.836 45.044 37.8495C45.2168 37.8629 45.3834 37.9127 45.5341 37.996C45.6847 38.0793 45.8166 38.1942 45.9215 38.3341C46.1362 38.6128 46.232 38.9753 46.1883 39.342C46.1445 39.7089 45.9647 40.0499 45.6881 40.2903L30.919 52.4028C28.7668 54.1415 26.1009 54.9748 23.4766 54.7292Z" fill="#CC7474"/>
<path d="M38.466 23.8321C40.0668 23.9567 41.5479 24.6693 42.6524 25.8472L42.8683 26.0891C43.4503 26.7872 43.8874 27.6109 44.1515 28.5114C44.3828 29.3005 44.4769 30.1337 44.4298 30.9719L44.4007 31.3318C44.307 32.148 44.0549 32.9432 43.6602 33.667C43.2648 34.3922 42.7354 35.0292 42.1073 35.5388L42.1042 35.5405L27.2977 47.7031C26.5066 48.3417 25.5363 48.6503 24.5817 48.5761C23.627 48.5018 22.7475 48.0491 22.122 47.3003L22.1201 47.2991L22.0091 47.1594C21.7578 46.8259 21.5668 46.4421 21.4475 46.0264C21.3114 45.5514 21.2718 45.0456 21.3319 44.5415C21.392 44.0375 21.5506 43.5471 21.7965 43.1018C22.0424 42.6566 22.3705 42.2667 22.7576 41.9562L22.762 41.9526L36.4523 30.7435L36.4588 30.7391L36.4643 30.7336C36.6387 30.5824 36.853 30.5124 37.0588 30.5284C37.2388 30.5425 37.4088 30.6225 37.5392 30.7595L37.5928 30.8215C37.7286 30.9979 37.7931 31.2336 37.764 31.4778C37.7352 31.7192 37.6181 31.9381 37.4463 32.0902L23.7765 43.2833C23.6187 43.4034 23.4805 43.5472 23.3661 43.7084L23.2597 43.8753C23.1291 44.1048 23.0459 44.3578 23.015 44.6167C22.9919 44.8108 22.9987 45.0059 23.0345 45.1947L23.0799 45.3822C23.1539 45.6277 23.2795 45.8527 23.4483 46.0421L23.4508 46.0463C23.8129 46.4444 24.3108 46.6896 24.8547 46.732C25.3985 46.7742 25.9445 46.6102 26.394 46.2753L26.4038 46.2673L26.4135 46.2602L41.2198 34.1318L41.2274 34.1256C41.6581 33.7589 42.0163 33.3097 42.282 32.8062C42.5477 32.3025 42.715 31.7535 42.7762 31.1926L42.7769 31.1868L42.7967 30.9221C42.8266 30.305 42.7518 29.6915 42.5756 29.11C42.3747 28.447 42.0448 27.8383 41.6049 27.3217L41.6059 27.3218C40.7636 26.3149 39.5676 25.6942 38.256 25.5921C36.9444 25.49 35.6245 25.9149 34.5598 26.7734L34.5554 26.777L19.8193 38.9098C19.023 39.5462 18.3546 40.341 17.8547 41.2428C17.3536 42.1472 17.0328 43.141 16.9112 44.1602C16.7896 45.1795 16.8697 46.2036 17.1477 47.1685C17.4254 48.132 17.8949 49.0158 18.5273 49.7637L18.5272 49.7647C19.8639 51.3724 21.7634 52.3615 23.8454 52.5236C25.9276 52.6857 28.0266 52.0079 29.7189 50.6358L29.7222 50.6331L44.3795 38.5675L44.3947 38.555C44.4804 38.4789 44.5771 38.4225 44.6781 38.3872C44.7788 38.3521 44.8829 38.3376 44.9848 38.3455C45.0867 38.3534 45.1862 38.3837 45.2769 38.4338C45.3449 38.4715 45.4073 38.5205 45.462 38.5794L45.5145 38.6412L45.5178 38.6464C45.6539 38.823 45.7191 39.0587 45.6901 39.3028C45.6609 39.5471 45.5408 39.7683 45.3658 39.9205L30.6119 52.0217C28.5626 53.6772 26.03 54.4661 23.5431 54.2333L23.5334 54.2326C21.0751 54.0514 18.8169 52.8916 17.2178 50.9791L17.217 50.9781C16.4424 50.0544 15.8649 48.9606 15.5231 47.7644C15.1812 46.5682 15.0825 45.2963 15.2336 44.0297C15.3847 42.7631 15.7823 41.5298 16.4007 40.4083C17.0192 39.2867 17.8445 38.3015 18.8234 37.514L18.8277 37.5104L33.6121 25.3686C35.0273 24.2445 36.7586 23.6993 38.466 23.8321Z" stroke="black" stroke-opacity="0.7"/>
</svg>
